# xmcd
#
# Track frame offsets:
#	150
#	19298
#	35599
#	51624
#	69564
#	92209
#	108305
#	120531
#	139498
#	154723
#
# Disc length: 2307 seconds
#
# Revision: 1
# Processed by: cddbd v1.5.2PL0 Copyright (c) Steve Scherf et al.
# Submitted via: audiograbber 1.83.01
#
DISCID=9109010a
DTITLE=Jewels and Johnny Nation - Outdoor Booogie
DYEAR=2014
DGENRE=
TTITLE0=Outdoor Boogie
TTITLE1=Blues In The Morning
TTITLE2=Highway 27
TTITLE3=When Harrison Hit The Night
TTITLE4=Dan The Man
TTITLE5=Two Lane To Paradise
TTITLE6=Winter Rose
TTITLE7=Another Honky Tonk Song
TTITLE8=Skye
TTITLE9=If We´d Have Met When We Were Young
EXTD=
EXTT0=
EXTT1=
EXTT2=
EXTT3=
EXTT4=
EXTT5=
EXTT6=
EXTT7=
EXTT8=
EXTT9=
PLAYORDER=
